<?xml version="1.0" encoding="UTF-8"?>
<svg version="1.1" xmlns="http://www.w3.org/2000/svg" width="512" height="512">
<path d="M0 0 C168.96 0 337.92 0 512 0 C512 168.96 512 337.92 512 512 C343.04 512 174.08 512 0 512 C0 343.04 0 174.08 0 0 Z " fill="#F5FAFA" transform="translate(0,0)"/>
<path d="M0 0 C5.26416841 1.7547228 6.84179929 7.47226933 9.3125 12.1875 C9.88806641 13.22970703 10.46363281 14.27191406 11.05664062 15.34570312 C11.85811523 16.86647461 11.85811523 16.86647461 12.67578125 18.41796875 C13.16989502 19.34375732 13.66400879 20.2695459 14.1730957 21.22338867 C15.24902876 24.83619844 14.49435844 26.60023172 13 30 C11.45289651 32.788703 9.81208235 35.50068076 8.14453125 38.21875 C6.66168381 41.82211988 6.85790843 43.26796848 8 47 C9.53466105 50.21686469 11.27551037 53.29262725 13.0625 56.375 C13.77116211 57.62216797 13.77116211 57.62216797 14.49414062 58.89453125 C15.65477546 60.9344349 16.82349773 62.96922018 18 65 C20.91200096 61.39466547 23.09035392 57.42322146 25.3125 53.375 C25.73257324 52.61461426 26.15264648 51.85422852 26.58544922 51.07080078 C32.81160876 39.76206203 38.90023134 28.37724514 45 17 C42.03 17 39.06 17 36 17 C33.73915847 21.09314513 31.47883504 25.18657576 29.21899414 29.28027344 C28.44993138 30.67325602 27.68072636 32.06616008 26.91137695 33.45898438 C25.80643017 35.45942961 24.70199299 37.46015544 23.59765625 39.4609375 C23.25283707 40.08495453 22.90801788 40.70897156 22.55274963 41.35189819 C20.7313322 44.6521012 20.7313322 44.6521012 19 48 C18.34 48 17.68 48 17 48 C14.28245785 43.43452918 13.72131787 41.13625919 15 36 C16.36694336 33.17919922 16.36694336 33.17919922 18.08984375 30.3046875 C18.70923828 29.25925781 19.32863281 28.21382812 19.96679688 27.13671875 C20.94229492 25.52216797 20.94229492 25.52216797 21.9375 23.875 C23.21832975 21.7270881 24.49831323 19.57867128 25.77734375 17.4296875 C26.63187134 16.01018799 26.63187134 16.01018799 27.50366211 14.56201172 C28.7536217 12.42184595 29.891604 10.21679201 31 8 C40.24 8 49.48 8 59 8 C58.16169226 12.19153871 57.55986529 14.16328015 55.515625 17.67578125 C54.7412207 19.0225293 54.7412207 19.0225293 53.95117188 20.39648438 C53.38978516 21.35876953 52.82839844 22.32105469 52.25 23.3125 C51.05538792 25.39083398 49.86273772 27.47029665 48.671875 29.55078125 C48.06021484 30.61893066 47.44855469 31.68708008 46.81835938 32.78759766 C43.97076773 37.81829192 41.23413776 42.90701469 38.5 48 C32.17126037 59.76445503 25.61858821 71.39659826 19 83 C16.06900041 80.43170121 14.48117152 77.5031172 12.64453125 74.08984375 C12.02255859 72.93548828 11.40058594 71.78113281 10.75976562 70.59179688 C10.44048096 69.99230225 10.12119629 69.39280762 9.79223633 68.77514648 C8.81203795 66.93663335 7.82171815 65.10384668 6.83007812 63.27148438 C2 54.26104666 2 54.26104666 2 52 C1.34 52 0.68 52 0 52 C-0.27183105 52.87414551 -0.54366211 53.74829102 -0.82373047 54.64892578 C-1.93892841 57.82601315 -3.24996872 60.64355778 -4.8203125 63.6171875 C-5.35527344 64.63554687 -5.89023438 65.65390625 -6.44140625 66.703125 C-6.99699219 67.74984375 -7.55257812 68.7965625 -8.125 69.875 C-8.68832031 70.94492187 -9.25164062 72.01484375 -9.83203125 73.1171875 C-11.21734739 75.74694017 -12.60677596 78.37443083 -14 81 C-15.32 81 -16.64 81 -18 81 C-18.4964502 80.08226807 -18.4964502 80.08226807 -19.00292969 79.14599609 C-25.00781548 68.04749589 -31.01823722 56.9521149 -37.0625 45.875 C-37.54541504 44.9893335 -38.02833008 44.10366699 -38.52587891 43.19116211 C-41.12515173 38.42640411 -43.73218322 33.66604239 -46.34765625 28.91015625 C-46.89607178 27.91064941 -47.4444873 26.91114258 -48.00952148 25.88134766 C-49.06006467 23.96696807 -50.11284197 22.05381221 -51.16821289 20.14208984 C-51.87772095 18.84779053 -51.87772095 18.84779053 -52.6015625 17.52734375 C-53.01744629 16.77187256 -53.43333008 16.01640137 -53.86181641 15.23803711 C-55.06412832 12.87390297 -56.0508396 10.47539506 -57 8 C-33.04679518 5.65117422 -33.04679518 5.65117422 -26.93554688 9.19824219 C-23.78485572 12.47969326 -22.33254844 16.50244675 -20.8671875 20.74462891 C-19.92662185 23.19084103 -18.7559481 25.34178151 -17.4375 27.60546875 C-16.78140747 28.73674194 -16.78140747 28.73674194 -16.11206055 29.89086914 C-15.26196895 31.35229845 -14.41187153 32.81372437 -13.56176758 34.27514648 C-10.8541593 39.28766241 -10.8541593 39.28766241 -11.57421875 42.8046875 C-12.89711506 44.84158538 -14.26378909 46.32297469 -16 48 C-16.43155396 47.21580688 -16.43155396 47.21580688 -16.87182617 46.41577148 C-19.24617531 42.11957631 -21.65486587 37.84636483 -24.11328125 33.59765625 C-24.63857422 32.68822266 -25.16386719 31.77878906 -25.70507812 30.84179688 C-26.79343995 28.95997564 -27.88467245 27.07981226 -28.97851562 25.20117188 C-29.75678711 23.85055664 -29.75678711 23.85055664 -30.55078125 22.47265625 C-31.02169189 21.66062744 -31.49260254 20.84859863 -31.9777832 20.01196289 C-33 18 -33 18 -33 16 C-36.3 16 -39.6 16 -43 16 C-35.81827842 29.98054254 -28.61751456 43.93145989 -20.890625 57.62109375 C-19.82700935 59.52197708 -18.79115467 61.44129304 -17.859375 63.41015625 C-17.0921932 65.19314329 -17.0921932 65.19314329 -15 66 C-14.75636719 65.15308594 -14.51273438 64.30617188 -14.26171875 63.43359375 C-12.63869914 59.01676948 -10.2220471 55.21617349 -7.65820312 51.29882812 C-5.74661767 48.16604833 -4.99852728 46.16623287 -5.03125 42.47265625 C-6.42746189 37.46768701 -9.00479203 33.49119439 -11.69921875 29.0859375 C-13 26 -13 26 -12.24389648 23.62475586 C-11.01177863 21.02485417 -9.74103298 18.46265554 -8.3984375 15.91796875 C-7.90859375 14.98662109 -7.41875 14.05527344 -6.9140625 13.09570312 C-6.15222656 11.65614258 -6.15222656 11.65614258 -5.375 10.1875 C-4.859375 9.20845703 -4.34375 8.22941406 -3.8125 7.22070312 C-2.5438591 4.81263475 -1.27296034 2.405787 0 0 Z " fill="#4E51BF" transform="translate(135,215)"/>
<path d="M0 0 C2.64 0 5.28 0 8 0 C8.79638691 2.79039383 9.58717057 5.58218892 10.375 8.375 C10.59671875 9.14972656 10.8184375 9.92445313 11.046875 10.72265625 C12.65197112 16.4349101 13.91121326 22.16798391 15 28 C15.20681396 27.22285645 15.41362793 26.44571289 15.62670898 25.64501953 C16.5614044 22.13774627 17.49940926 18.63136657 18.4375 15.125 C18.76298828 13.90167969 19.08847656 12.67835938 19.42382812 11.41796875 C19.73642578 10.25136719 20.04902344 9.08476562 20.37109375 7.8828125 C20.65911865 6.80402832 20.94714355 5.72524414 21.24389648 4.61376953 C22 2 22 2 23 0 C26.3 0 29.6 0 33 0 C33.34933594 1.49273437 33.69867188 2.98546875 34.05859375 4.5234375 C34.51809869 6.47398908 34.97774123 8.42450824 35.4375 10.375 C35.66759766 11.35984375 35.89769531 12.3446875 36.13476562 13.359375 C36.35712891 14.30039063 36.57949219 15.24140625 36.80859375 16.2109375 C37.01282959 17.08024902 37.21706543 17.94956055 37.42749023 18.84521484 C37.9295171 21.02782093 37.9295171 21.02782093 39 23 C39.039992 24.99960012 39.04346799 27.00047242 39 29 C39.66 29 40.32 29 41 29 C41.11214844 27.73285156 41.22429687 26.46570313 41.33984375 25.16015625 C41.93716805 19.78423753 43.19406382 14.66208968 44.5625 9.4375 C44.91344727 8.06754883 44.91344727 8.06754883 45.27148438 6.66992188 C45.84222117 4.44521316 46.4203366 2.22239953 47 0 C49.97 0 52.94 0 56 0 C55.76925781 0.92296875 55.53851563 1.8459375 55.30078125 2.796875 C55.14593262 3.4165918 54.99108398 4.03630859 54.83154297 4.67480469 C54.48091665 6.07665027 54.1296638 7.47833928 53.77783203 8.87988281 C52.73427482 13.04144055 51.70447756 17.20590832 50.69140625 21.375 C50.47250732 22.26864258 50.2536084 23.16228516 50.02807617 24.08300781 C49.59865805 25.83663904 49.17293044 27.59117882 48.7512207 29.34667969 C48.55230225 30.15524414 48.35338379 30.96380859 48.1484375 31.796875 C47.97489746 32.51198242 47.80135742 33.22708984 47.62255859 33.96386719 C47 36 47 36 45 40 C41.7 40 38.4 40 35 40 C32.69 31.42 30.38 22.84 28 14 C25.59180261 20.32856062 25.59180261 20.32856062 23.61328125 26.71875 C23.39736328 27.50507813 23.18144531 28.29140625 22.95898438 29.1015625 C22.74564453 29.89304687 22.53230469 30.68453125 22.3125 31.5 C22.08755859 32.32242188 21.86261719 33.14484375 21.63085938 33.9921875 C21.08388575 35.99387823 20.54146031 37.99681088 20 40 C16.7 40 13.4 40 10 40 C9.69707031 38.90945313 9.39414063 37.81890625 9.08203125 36.6953125 C8.88182373 35.9748877 8.68161621 35.25446289 8.4753418 34.51220703 C8.02952193 32.90659868 7.58438381 31.30080089 7.13989258 29.69482422 C5.96059219 25.43773634 4.77021326 21.18439816 3.5546875 16.9375 C3.21087036 15.72682861 3.21087036 15.72682861 2.86010742 14.49169922 C2.4191344 12.9400504 1.97412443 11.38954195 1.5246582 9.84033203 C0.54884904 6.39024781 0 3.61699317 0 0 Z " fill="#1D232E" transform="translate(206,240)"/>
<path d="M0 0 C3.87987121 2.16971439 5.96960968 4.22849679 7.8125 8.375 C8.65466056 14.31852394 8.29747828 19.32779008 4.8125 24.375 C0.11162755 28.72330701 -3.66236715 29.74356931 -9.90625 29.65234375 C-14.73133827 29.06573199 -17.38819827 26.2374045 -20.5625 22.8125 C-22.86705227 17.93748558 -22.95393944 13.6768646 -22.1875 8.375 C-18.01190535 -0.81130823 -9.21599343 -4.06186377 0 0 Z " fill="#1C232D" transform="translate(285.1875,251.625)"/>
<path d="M0 0 C2.31 0 4.62 0 7 0 C7.33 7.26 7.66 14.52 8 22 C9.9490625 19.525 9.9490625 19.525 11.9375 17 C16.19085261 12.20653912 16.19085261 12.20653912 19.6015625 11.3359375 C22.0625 11.375 22.0625 11.375 26 12 C23.11954533 16.65304216 19.96084779 20.21919074 16 24 C17.61402087 27.72194976 19.96407426 30.53024575 22.5625 33.625 C26.90277778 38.80555556 26.90277778 38.80555556 28 41 C24.38715578 41.8993676 21.58984086 42.07210112 18 41 C13.88393593 37.39084718 10.9467566 32.56433788 8 28 C7.67 32.29 7.34 36.58 7 41 C4.69 41 2.38 41 0 41 C0 27.47 0 13.94 0 0 Z " fill="#131B25" transform="translate(323,239)"/>
<path d="M0 0 C2.64 0 5.28 0 8 0 C10.31 5.61 12.62 11.22 15 17 C17.75307198 14.24692802 18.74908236 10.9431692 20.125 7.375 C20.40214844 6.66859375 20.67929687 5.9621875 20.96484375 5.234375 C21.64789908 3.49140623 22.32456494 1.74593591 23 0 C25.97 0 28.94 0 32 0 C29.58017265 7.83923236 26.36578768 15.21203679 23 22.6875 C22.19949219 24.4828418 22.19949219 24.4828418 21.3828125 26.31445312 C19.01884475 31.59809746 16.61623227 36.83554592 14 42 C11.36 42 8.72 42 6 42 C6.20496094 41.43152344 6.40992188 40.86304688 6.62109375 40.27734375 C6.89050781 39.50519531 7.15992188 38.73304688 7.4375 37.9375 C7.70433594 37.18339844 7.97117187 36.42929687 8.24609375 35.65234375 C8.61927734 34.33943359 8.61927734 34.33943359 9 33 C9.2990625 31.98550781 9.598125 30.97101563 9.90625 29.92578125 C10.04770813 24.00222186 7.5639374 19.53191961 5.0625 14.25 C4.11131053 12.19481953 3.16447969 10.13761445 2.22265625 8.078125 C1.58469116 6.72315918 1.58469116 6.72315918 0.93383789 5.34082031 C0 3 0 3 0 0 Z " fill="#1C222D" transform="translate(369,251)"/>
<path d="M0 0 C3.70390021 2.02666238 5.65363011 3.48044516 8 7 C8.22705078 9.4519043 8.22705078 9.4519043 8.1953125 12.32421875 C8.18886719 13.35224609 8.18242187 14.38027344 8.17578125 15.43945312 C8.15902344 16.51130859 8.14226562 17.58316406 8.125 18.6875 C8.11597656 19.77095703 8.10695313 20.85441406 8.09765625 21.97070312 C8.0740734 24.6473571 8.04116126 27.32356797 8 30 C5.36 30 2.72 30 0 30 C-0.01981934 29.40461426 -0.03963867 28.80922852 -0.06005859 28.19580078 C-0.15516126 25.50507847 -0.26489842 22.81514852 -0.375 20.125 C-0.4059375 19.18785156 -0.436875 18.25070312 -0.46875 17.28515625 C-0.50742187 16.38925781 -0.54609375 15.49335938 -0.5859375 14.5703125 C-0.6173584 13.74289551 -0.6487793 12.91547852 -0.68115234 12.06298828 C-0.82599137 9.78013915 -0.82599137 9.78013915 -3 8 C-5.95769177 7.49989476 -5.95769177 7.49989476 -9 8 C-11.80759477 10.46163522 -12.23024947 12.75983308 -12.51171875 16.328125 C-12.58446328 17.96818349 -12.64262733 19.6089424 -12.6875 21.25 C-12.72166016 22.09046875 -12.75582031 22.9309375 -12.79101562 23.796875 C-12.87323568 25.86412204 -12.93830157 27.93203874 -13 30 C-15.64 30 -18.28 30 -21 30 C-21 20.43 -21 10.86 -21 1 C-18.36 1 -15.72 1 -13 1 C-12.67 1.66 -12.34 2.32 -12 3 C-11.319375 2.505 -10.63875 2.01 -9.9375 1.5 C-6.25859625 -0.37858915 -4.0908775 -0.50238846 0 0 Z " fill="#212731" transform="translate(426,250)"/>
<path d="M0 0 C2.64 0 5.28 0 8 0 C8 14.19 8 28.38 8 43 C5.36 43 2.72 43 0 43 C0 28.81 0 14.62 0 0 Z " fill="#18202A" transform="translate(356,238)"/>
<path d="M0 0 C0 2.97 0 5.94 0 9 C-0.63808594 9.12117188 -1.27617187 9.24234375 -1.93359375 9.3671875 C-2.75988281 9.53476562 -3.58617187 9.70234375 -4.4375 9.875 C-5.67306641 10.11863281 -5.67306641 10.11863281 -6.93359375 10.3671875 C-7.61550781 10.57601563 -8.29742187 10.78484375 -9 11 C-10.11823815 13.23647631 -10.19396061 14.64891529 -10.31640625 17.1328125 C-10.35830078 17.93847656 -10.40019531 18.74414062 -10.44335938 19.57421875 C-10.50233398 20.83685547 -10.50233398 20.83685547 -10.5625 22.125 C-10.60568359 22.97449219 -10.64886719 23.82398438 -10.69335938 24.69921875 C-10.79954236 26.79928223 -10.90028497 28.89961948 -11 31 C-13.64 31 -16.28 31 -19 31 C-19 21.1 -19 11.2 -19 1 C-16.36 1 -13.72 1 -11 1 C-10.67 1.99 -10.34 2.98 -10 4 C-9.278125 3.34 -8.55625 2.68 -7.8125 2 C-4.78402067 -0.1535853 -3.60296594 -0.41176754 0 0 Z " fill="#252B34" transform="translate(318,250)"/>
<path d="M0 0 C1.918125 0.3403125 1.918125 0.3403125 3.875 0.6875 C0.99454533 5.34054216 -2.16415221 8.90669074 -6.125 12.6875 C-4.51097913 16.40944976 -2.16092574 19.21774575 0.4375 22.3125 C4.77777778 27.49305556 4.77777778 27.49305556 5.875 29.6875 C2.26614271 30.58587511 -0.53447398 30.73696363 -4.125 29.6875 C-8.79298853 25.24301297 -12.71547906 20.12484474 -15.17578125 14.125 C-15.07591519 9.33142933 -11.18897413 6.20636311 -7.984375 2.9609375 C-5.0029911 0.59049292 -3.7394489 -0.03572722 0 0 Z " fill="#1C222D" transform="translate(345.125,250.3125)"/>
<path d="M0 0 C3.4375 1 3.4375 1 5.375 2.625 C6.88040722 5.99002791 6.88569965 8.35037432 6.4375 12 C4.8125 14.9375 4.8125 14.9375 2.4375 17 C-1.15261393 17.67314636 -2.81349332 17.45334615 -5.9375 15.5625 C-8.34067914 11.77287136 -8.33811987 8.36586028 -7.5625 4 C-5.34532312 0.27514285 -4.34224673 0 0 0 Z " fill="#EEF3F4" transform="translate(278.5625,257)"/>
<path d="M0 0 C2.64 0 5.28 0 8 0 C8 14.19 8 28.38 8 43 C5.36 43 2.72 43 0 43 C0 28.81 0 14.62 0 0 Z M1 2 C1 14.87 1 27.74 1 41 C2.65 41 4.3 41 6 41 C6 28.13 6 15.26 6 2 C4.35 2 2.7 2 1 2 Z " fill="#32373F" transform="translate(356,238)"/>
<path d="M0 0 C0.66 0 1.32 0 2 0 C6.02417962 6.96027634 6.02417962 6.96027634 5.9375 10.6875 C4.85737358 13.35181184 3.67276945 15.65812277 2 18 C1.34 18 0.68 18 0 18 C-2.40758736 13.78672212 -3.60801936 10.8641549 -3 6 C-1.5 2.625 -1.5 2.625 0 0 Z " fill="#E8ECF9" transform="translate(135,231)"/>
<path d="M0 0 C4.5188579 -0.34991653 9.03424463 -0.56197556 13.5625 -0.75 C14.83931641 -0.85054687 16.11613281 -0.95109375 17.43164062 -1.0546875 C21.29763444 -1.17518601 24.29761956 -1.14475187 28 0 C31.28411781 3.6309446 33.21376447 7.46561149 35 12 C30.57320993 10.52440331 30.08567304 8.09942632 28 4 C28 3.34 28 2.68 28 2 C19.75 2 11.5 2 3 2 C2.67 2.99 2.34 3.98 2 5 C1.34 3.35 0.68 1.7 0 0 Z " fill="#6466B0" transform="translate(78,223)"/>
<path d="M0 0 C9.24 0 18.48 0 28 0 C27.67 1.65 27.34 3.3 27 5 C26.67 4.01 26.34 3.02 26 2 C21.9156272 2.05183668 17.83337529 2.1469071 13.75 2.25 C12.59113281 2.26417969 11.43226563 2.27835938 10.23828125 2.29296875 C9.12324219 2.32519531 8.00820312 2.35742188 6.859375 2.390625 C5.83295898 2.41157227 4.80654297 2.43251953 3.74902344 2.45410156 C0.37645667 3.12382264 -0.8338992 4.3988664 -3 7 C-1.125 2.25 -1.125 2.25 0 0 Z " fill="#6365AD" transform="translate(166,223)"/>
<path d="M0 0 C1.875 0.125 1.875 0.125 4 1 C5 3.625 5 3.625 6 7 C6.67932678 8.24543243 7.38868102 9.47489076 8.125 10.6875 C10 14 10 14 10 17 C10.66 17 11.32 17 12 17 C12 18.32 12 19.64 12 21 C12.66 21 13.32 21 14 21 C15.65 24.63 17.3 28.26 19 32 C18.01 32.495 18.01 32.495 17 33 C14.73667058 28.78406879 12.47641622 24.56650937 10.21899414 20.34741211 C9.45063192 18.91238983 8.68143173 17.47781591 7.91137695 16.04370117 C6.80459449 13.98213151 5.70083674 11.91896764 4.59765625 9.85546875 C4.25283707 9.21473923 3.90801788 8.5740097 3.55274963 7.91386414 C2.15607529 5.29547031 0.94069976 2.82209928 0 0 Z " fill="#5354AB" transform="translate(85,236)"/>
<path d="M0 0 C0.66 0.33 1.32 0.66 2 1 C-1.96 8.26 -5.92 15.52 -10 23 C-11.19156292 18.23374833 -10.3415946 17.12120649 -8 13 C-7.34 13 -6.68 13 -6 13 C-6 11.68 -6 10.36 -6 9 C-5.34 9 -4.68 9 -4 9 C-3.71125 8.071875 -3.4225 7.14375 -3.125 6.1875 C-2 3 -2 3 0 0 Z " fill="#5354AB" transform="translate(179,248)"/>
<path d="M0 0 C0.33 0.99 0.66 1.98 1 3 C0.67 3.639375 0.34 4.27875 0 4.9375 C-1.20890981 6.93512895 -1.20890981 6.93512895 -0.6875 9.0625 C-0.460625 9.701875 -0.23375 10.34125 0 11 C0.33 11.99 0.66 12.98 1 14 C1.66 14.33 2.32 14.66 3 15 C3.72693904 16.97888961 4.39816251 18.97954558 5 21 C4.34 21.33 3.68 21.66 3 22 C1.76850224 19.94850495 0.56579526 17.88743837 -0.625 15.8125 C-1.1509375 14.9452832 -1.1509375 14.9452832 -1.6875 14.06054688 C-3.36827273 11.08557914 -4.15331372 9.59325744 -3.28125 6.21875 C-2.8584375 5.4865625 -2.435625 4.754375 -2 4 C-1.62875 3.236875 -1.2575 2.47375 -0.875 1.6875 C-0.58625 1.130625 -0.2975 0.57375 0 0 Z " fill="#575AAA" transform="translate(126,232)"/>
<path d="M0 0 C0.66 0 1.32 0 2 0 C0.57250019 3.79049707 -1.16236542 7.27122456 -3.125 10.8125 C-3.93324219 12.27623047 -3.93324219 12.27623047 -4.7578125 13.76953125 C-5.37269531 14.87361328 -5.37269531 14.87361328 -6 16 C-6.33 14.68 -6.66 13.36 -7 12 C-6.34 12 -5.68 12 -5 12 C-5 10.68 -5 9.36 -5 8 C-4.34 8 -3.68 8 -3 8 C-3 6.68 -3 5.36 -3 4 C-2.34 4 -1.68 4 -1 4 C-0.67 2.68 -0.34 1.36 0 0 Z " fill="#5353AB" transform="translate(166,271)"/>
<path d="M0 0 C0.66 0 1.32 0 2 0 C2 0.99 2 1.98 2 3 C2.66 3 3.32 3 4 3 C5.65 6.63 7.3 10.26 9 14 C8.01 14.495 8.01 14.495 7 15 C5.82823482 12.87767021 4.66245215 10.75242209 3.5 8.625 C3.16613281 8.02171875 2.83226563 7.4184375 2.48828125 6.796875 C0 2.2265625 0 2.2265625 0 0 Z " fill="#5354AD" transform="translate(105,272)"/>
<path d="M0 0 C3 3.75 3 3.75 3 6 C4.32 6 5.64 6 7 6 C7.33 4.68 7.66 3.36 8 2 C8.66 2.33 9.32 2.66 10 3 C8.68 5.31 7.36 7.62 6 10 C3 9 3 9 1.83203125 7.15234375 C1.49558594 6.42144531 1.15914063 5.69054687 0.8125 4.9375 C0.46832031 4.20402344 0.12414062 3.47054688 -0.23046875 2.71484375 C-0.48441406 2.14894531 -0.73835938 1.58304687 -1 1 C-0.67 0.67 -0.34 0.34 0 0 Z " fill="#595BA8" transform="translate(114,287)"/>
<path d="M0 0 C0.66 0 1.32 0 2 0 C0.46197215 5.84450583 -2.4560838 11.12711522 -6 16 C-6.66 16 -7.32 16 -8 16 C-8 15.34 -8 14.68 -8 14 C-7.34 14 -6.68 14 -6 14 C-5.7525 13.175 -5.505 12.35 -5.25 11.5 C-3.81295189 7.47626529 -1.97645485 3.78020976 0 0 Z " fill="#5858A9" transform="translate(189,229)"/>
<path d="M0 0 C0.66 0 1.32 0 2 0 C2.26554688 0.56589844 2.53109375 1.13179688 2.8046875 1.71484375 C3.15789062 2.44832031 3.51109375 3.18179687 3.875 3.9375 C4.22304687 4.66839844 4.57109375 5.39929688 4.9296875 6.15234375 C5.8684977 8.16332459 5.8684977 8.16332459 8 9 C7.34 10.32 6.68 11.64 6 13 C4.99491199 11.21118264 3.99607264 9.41885304 3 7.625 C2.1646875 6.12839844 2.1646875 6.12839844 1.3125 4.6015625 C0 2 0 2 0 0 Z " fill="#5456A7" transform="translate(147,285)"/>
<path d="M0 0 C0.66 0 1.32 0 2 0 C2.33 0.99 2.66 1.98 3 3 C3.66 3 4.32 3 5 3 C5.33 2.34 5.66 1.68 6 1 C6.66 1.33 7.32 1.66 8 2 C7.01 3.98 6.02 5.96 5 8 C4.34 8 3.68 8 3 8 C0 2.25 0 2.25 0 0 Z " fill="#5253A4" transform="translate(149,255)"/>
<path d="M0 0 C2.97 0 5.94 0 9 0 C8.67 0.99 8.34 1.98 8 3 C7.05125 2.979375 6.1025 2.95875 5.125 2.9375 C2.09333717 2.77448174 2.09333717 2.77448174 0 4 C0 2.68 0 1.36 0 0 Z " fill="#232A32" transform="translate(392,251)"/>
<path d="M0 0 C0.99 0.33 1.98 0.66 3 1 C3.33 1.99 3.66 2.98 4 4 C3.38125 4.061875 2.7625 4.12375 2.125 4.1875 C-0.27761141 4.828919 -0.27761141 4.828919 -1.25 7.5625 C-1.4975 8.366875 -1.745 9.17125 -2 10 C-2.66 10 -3.32 10 -4 10 C-2.8905928 6.51329166 -1.73662334 3.22515763 0 0 Z " fill="#5A5EA6" transform="translate(135,215)"/>
<path d="M0 0 C0.66 0 1.32 0 2 0 C2 0.66 2 1.32 2 2 C2.66 2.33 3.32 2.66 4 3 C7 8.30769231 7 8.30769231 7 12 C4.39954125 9.6975881 3.15260817 7.50103323 1.8125 4.3125 C1.46832031 3.50425781 1.12414062 2.69601563 0.76953125 1.86328125 C0.51558594 1.24839844 0.26164062 0.63351563 0 0 Z " fill="#585AA6" transform="translate(113,251)"/>
<path d="M0 0 C0.98726527 2.66561622 1.0275526 3.90126985 0.25 6.6875 C-1 9 -1 9 -4 10 C-2.66666667 6.66666667 -1.33333333 3.33333333 0 0 Z " fill="#585BB1" transform="translate(141,239)"/>
</svg>
