<?xml version="1.0" encoding="UTF-8"?>
<svg version="1.1" xmlns="http://www.w3.org/2000/svg" width="500" height="500">
<path d="M0 0 C3.27991165 4.21796639 5.7287218 8.74037295 8.25 13.4375 C8.72179687 14.28376953 9.19359375 15.13003906 9.6796875 16.00195312 C10.12054688 16.82501953 10.56140625 17.64808594 11.015625 18.49609375 C11.62325684 19.61262329 11.62325684 19.61262329 12.24316406 20.75170898 C13.1965738 23.583951 12.85800751 25.16407147 12 28 C10.19630043 31.3130022 8.26039606 34.52319327 6.30078125 37.74609375 C4.71911418 40.87357886 4.71911418 40.87357886 5.50390625 43.85546875 C7.43953285 47.92382231 9.47712295 51.91485169 11.625 55.875 C12.04523438 56.65875 12.46546875 57.4425 12.8984375 58.25 C13.9281022 60.16892057 14.96347567 62.08477603 16 64 C18.7609232 61.54727288 20.28406792 58.90432717 22.00390625 55.65234375 C22.57544434 54.57968262 23.14698242 53.50702148 23.73583984 52.40185547 C24.3386377 51.25861816 24.94143555 50.11538086 25.5625 48.9375 C26.8154409 46.58411322 28.069293 44.23123297 29.32421875 41.87890625 C30.25306885 40.13504639 30.25306885 40.13504639 31.20068359 38.35595703 C33.71310947 33.66995891 36.28326874 29.0175003 38.875 24.375 C39.29724854 23.61823975 39.71949707 22.86147949 40.15454102 22.08178711 C41.1015283 20.38701958 42.0504944 18.69335791 43 17 C39.52674819 15.8422494 36.63932552 15.93133348 33 16 C32.73268066 16.70664795 32.46536133 17.4132959 32.18994141 18.14135742 C30.94748544 21.12615776 29.5089192 23.9003148 27.9609375 26.73828125 C27.09082031 28.33833008 27.09082031 28.33833008 26.203125 29.97070312 C25.59984375 31.07349609 24.9965625 32.17628906 24.375 33.3125 C23.76398438 34.43462891 23.15296875 35.55675781 22.5234375 36.71289062 C21.01808908 39.47661624 19.51019759 42.23892206 18 45 C17.01 45 16.02 45 15 45 C13 42 13 42 13.18188477 38.69262695 C14.01692796 34.92359434 15.18539351 32.26080921 17.08984375 28.91796875 C17.70923828 27.82162109 18.32863281 26.72527344 18.96679688 25.59570312 C19.94229492 23.90864258 19.94229492 23.90864258 20.9375 22.1875 C21.58396484 21.04345703 22.23042969 19.89941406 22.89648438 18.72070312 C27.68130795 10.31869205 27.68130795 10.31869205 30 8 C32.61376953 7.77294922 32.61376953 7.77294922 35.8828125 7.8046875 C37.63271484 7.81435547 37.63271484 7.81435547 39.41796875 7.82421875 C40.64128906 7.84097656 41.86460937 7.85773438 43.125 7.875 C44.35605469 7.88402344 45.58710938 7.89304688 46.85546875 7.90234375 C49.90383815 7.92597452 52.95182382 7.95891946 56 8 C55.38084514 10.84787587 54.50238347 13.20258263 53.13671875 15.7734375 C52.7509668 16.50385254 52.36521484 17.23426758 51.96777344 17.98681641 C51.5452832 18.77491699 51.12279297 19.56301758 50.6875 20.375 C50.2430957 21.2107959 49.79869141 22.0465918 49.34082031 22.90771484 C47.90057789 25.60879405 46.4519109 28.30517633 45 31 C44.29641357 32.30614258 44.29641357 32.30614258 43.57861328 33.63867188 C40.6317526 39.09619698 37.65814623 44.53858213 34.66650391 49.97167969 C33.49177645 52.10635876 32.31983459 54.24257192 31.14990234 56.37988281 C29.25344642 59.84087869 27.3467266 63.29603552 25.4375 66.75 C24.84163086 67.84006348 24.24576172 68.93012695 23.63183594 70.05322266 C23.07141602 71.06175293 22.51099609 72.0702832 21.93359375 73.109375 C21.43915771 74.00624023 20.94472168 74.90310547 20.43530273 75.82714844 C19 78 19 78 16 80 C14.06074205 76.45929322 12.12390879 72.91726567 10.1875 69.375 C9.36668945 67.87646484 9.36668945 67.87646484 8.52929688 66.34765625 C5.93686285 61.6027164 3.36500869 56.86278981 1 52 C0.34 52 -0.32 52 -1 52 C-1.40839111 52.81267334 -1.81678223 53.62534668 -2.23754883 54.46264648 C-3.75608364 57.47276496 -5.28329734 60.47813367 -6.81665039 63.48071289 C-7.47872394 64.78164926 -8.13727709 66.08438345 -8.79223633 67.38891602 C-9.73381519 69.26280763 -10.68782859 71.12988779 -11.64453125 72.99609375 C-12.21534424 74.12200928 -12.78615723 75.2479248 -13.37426758 76.40795898 C-15 79 -15 79 -18 80 C-18.35602295 79.33282959 -18.7120459 78.66565918 -19.07885742 77.97827148 C-25.49211194 65.97534206 -31.94284828 54.00829801 -38.6875 42.1875 C-43.01856407 34.5741616 -47.26494965 26.9226959 -51.375 19.1875 C-51.85799561 18.29119873 -52.34099121 17.39489746 -52.83862305 16.47143555 C-53.27086182 15.6494165 -53.70310059 14.82739746 -54.1484375 13.98046875 C-54.53177246 13.25754639 -54.91510742 12.53462402 -55.31005859 11.78979492 C-55.65157959 10.90384644 -55.65157959 10.90384644 -56 10 C-55.67 9.34 -55.34 8.68 -55 8 C-32.86565018 5.89374712 -32.86565018 5.89374712 -26.875 10.296875 C-25.19058129 13.11827633 -23.91191187 15.85124073 -22.81298828 18.9453125 C-21.90230319 21.24691183 -20.76832622 23.29656131 -19.52734375 25.4375 C-19.09744141 26.18459229 -18.66753906 26.93168457 -18.22460938 27.70141602 C-17.79986328 28.43932373 -17.37511719 29.17723145 -16.9375 29.9375 C-12.93703861 36.88853867 -12.93703861 36.88853867 -13.19140625 41.37890625 C-14 44 -14 44 -15 46 C-18.55449708 44.81516764 -18.67999306 44.2710072 -20.3046875 41.0625 C-20.72363281 40.24910156 -21.14257812 39.43570313 -21.57421875 38.59765625 C-22.00347656 37.74042969 -22.43273437 36.88320312 -22.875 36 C-24.15112976 33.49847347 -25.43032951 30.99875695 -26.71899414 28.50366211 C-27.58317755 26.81465871 -28.42574379 25.11444292 -29.24780273 23.40454102 C-31.46623409 18.64475785 -31.46623409 18.64475785 -35.67578125 15.90234375 C-36.54589844 15.91394531 -37.41601562 15.92554688 -38.3125 15.9375 C-39.19550781 15.92589844 -40.07851562 15.91429687 -40.98828125 15.90234375 C-41.65214844 15.93457031 -42.31601563 15.96679688 -43 16 C-38.12590071 26.02066376 -32.97179512 35.8769309 -27.6875 45.6875 C-27.07696777 46.82171387 -26.46643555 47.95592773 -25.83740234 49.12451172 C-22.68834124 54.99168025 -22.68834124 54.99168025 -19.30786133 60.72583008 C-18 63 -18 63 -18 65 C-17.34 65 -16.68 65 -16 65 C-15.77570313 64.33484375 -15.55140625 63.6696875 -15.3203125 62.984375 C-14.21304837 60.48156495 -13.10170564 58.61121414 -11.5546875 56.390625 C-6.41645165 49.11119067 -6.41645165 49.11119067 -5.38378906 40.62890625 C-7.04075608 36.01320671 -9.46211509 31.88932548 -12.23632812 27.85839844 C-13.32130597 25.21810069 -12.81625562 23.70512855 -12 21 C-10.89257813 18.61230469 -10.89257813 18.61230469 -9.53125 16.171875 C-8.79841797 14.84929687 -8.79841797 14.84929687 -8.05078125 13.5 C-7.53902344 12.5925 -7.02726562 11.685 -6.5 10.75 C-5.73236328 9.36554688 -5.73236328 9.36554688 -4.94921875 7.953125 C-1.16689161 1.16689161 -1.16689161 1.16689161 0 0 Z M-1 16 C-4.08594896 20.44556082 -4.08594896 20.44556082 -4.9375 25.5625 C-3.81250791 28.48747943 -2.47760779 31.23751588 -1 34 C-0.34 34 0.32 34 1 34 C4.0329207 28.96572718 4.0329207 28.96572718 4.9375 23.3125 C3.85737358 20.64818816 2.67276945 18.34187723 1 16 C0.34 16 -0.32 16 -1 16 Z " fill="#000000" transform="translate(133,210)"/>
<path d="M0 0 C2.31 0 4.62 0 7 0 C7.70776992 7.35575165 8.14715692 14.6094524 8 22 C8.81791016 20.9171875 8.81791016 20.9171875 9.65234375 19.8125 C15.73833767 12.32204594 15.73833767 12.32204594 19.6015625 11.3359375 C22.0625 11.375 22.0625 11.375 26 12 C19.84965831 20.44646925 19.84965831 20.44646925 16 24 C18.09710919 28.86252791 21.705049 32.542534 25.1015625 36.5390625 C27 39 27 39 27 41 C23.83771856 41.5082238 22.0450409 41.77416294 19 41 C14.94541917 37.56702738 11.9329485 33.39942275 9 29 C8.34 32.96 7.68 36.92 7 41 C5.02 41 3.04 41 1 41 C0 40 0 40 -0.11352539 36.21459961 C-0.11336622 34.52717271 -0.10766917 32.83974095 -0.09765625 31.15234375 C-0.0962413 30.2659169 -0.09482635 29.37949005 -0.09336853 28.46620178 C-0.08775215 25.62326746 -0.07519691 22.78041069 -0.0625 19.9375 C-0.05748711 18.01497509 -0.05292384 16.09244896 -0.04882812 14.16992188 C-0.03777741 9.44658451 -0.02050183 4.72330542 0 0 Z " fill="#000000" transform="translate(315,233)"/>
<path d="M0 0 C2.31 0 4.62 0 7 0 C7 13.53 7 27.06 7 41 C4.69 41 2.38 41 0 41 C-0.16721596 35.32186163 -0.32781538 29.64359025 -0.48217773 23.96508789 C-0.5356778 22.03176791 -0.59101308 20.09849784 -0.64819336 18.1652832 C-0.72988175 15.39285041 -0.80505352 12.62030742 -0.87890625 9.84765625 C-0.90594131 8.97786636 -0.93297638 8.10807648 -0.96083069 7.21192932 C-1.01278164 5.14189685 -1.01188571 3.07065016 -1 1 C-0.67 0.67 -0.34 0.34 0 0 Z " fill="#000000" transform="translate(348,233)"/>
<path d="M0 0 C2.64 0 5.28 0 8 0 C9.00771516 3.91472324 10.0048281 7.832071 11 11.75 C11.28617188 12.86117187 11.57234375 13.97234375 11.8671875 15.1171875 C12.13789063 16.18710938 12.40859375 17.25703125 12.6875 18.359375 C12.93886719 19.34389648 13.19023437 20.32841797 13.44921875 21.34277344 C14 24 14 24 14 28 C14.66 28 15.32 28 16 28 C16.1134375 26.87335938 16.226875 25.74671875 16.34375 24.5859375 C16.94383634 19.79158568 18.16377847 15.25977984 19.5 10.625 C19.72558594 9.81933594 19.95117188 9.01367188 20.18359375 8.18359375 C21.84800314 2.30399373 21.84800314 2.30399373 23 0 C25.64 0 28.28 0 31 0 C33.65648978 5.67912332 35.23651356 11.34861734 36.6875 17.4375 C36.91244141 18.35982422 37.13738281 19.28214844 37.36914062 20.23242188 C37.91818939 22.48702639 38.46166299 24.74281841 39 27 C41.00259956 21.24189572 42.71701797 15.4929203 44.125 9.5625 C45.87434326 2.25131349 45.87434326 2.25131349 47 0 C49.64 0 52.28 0 55 0 C52.0679476 13.56757168 48.16261671 26.76280866 44 40 C41.03 40 38.06 40 35 40 C33.82677153 36.06442471 32.66254629 32.12624273 31.5 28.1875 C31.16613281 27.06794922 30.83226562 25.94839844 30.48828125 24.79492188 C30.17246094 23.72177734 29.85664063 22.64863281 29.53125 21.54296875 C29.09135742 20.0583313 29.09135742 20.0583313 28.64257812 18.54370117 C28 16 28 16 28 13 C27.34 13 26.68 13 26 13 C25.8865625 13.95132813 25.773125 14.90265625 25.65625 15.8828125 C24.97525016 20.64261774 23.74144866 25.23552901 22.5 29.875 C22.27441406 30.74125 22.04882812 31.6075 21.81640625 32.5 C20.12871469 38.87128531 20.12871469 38.87128531 19 40 C16.32941149 40.14115161 13.67567762 40.04247107 11 40 C8.12845183 33.57694803 6.2060691 27.09120182 4.35571289 20.30151367 C3.81044167 18.30496326 3.25436569 16.31163747 2.69726562 14.31835938 C2.34986328 13.05443359 2.00246094 11.79050781 1.64453125 10.48828125 C1.32846924 9.33884033 1.01240723 8.18939941 0.68676758 7.00512695 C0 4 0 4 0 0 Z " fill="#000000" transform="translate(201,234)"/>
<path d="M0 0 C4.43118719 2.13646525 7.2290203 4.37577522 9 9 C9.66198068 14.34488104 9.67332051 18.60348339 7.3125 23.5 C3.24765156 27.89443074 0.53610427 29.18657624 -5.4375 29.4375 C-10.38551157 29.29099091 -13.27283083 28.44763149 -17 25 C-20.60057274 21.03936999 -20.50330882 16.78504341 -20.3515625 11.66015625 C-19.71571586 6.8489167 -17.41661708 4.28783371 -13.9375 1.125 C-9.31242228 -0.64630636 -4.88371757 -0.64542523 0 0 Z M-10.375 7.625 C-12.22897505 10.33465584 -12.92352561 11.71160127 -13 15 C-12.17513043 18.81365182 -12.17513043 18.81365182 -10 22 C-6.60581779 23.41349769 -6.60581779 23.41349769 -3 23 C0.01406739 21.01706093 0.82368838 19.54068898 1.9375 16.125 C2.01727715 12.13614237 1.38499257 10.20483376 -1 7 C-4.95082805 5.70700173 -6.87392606 5.22952835 -10.375 7.625 Z " fill="#000000" transform="translate(277,245)"/>
<path d="M0 0 C3.375 -0.1875 3.375 -0.1875 7 0 C7.66 0.99 8.32 1.98 9 3 C9.37125 2.505 9.7425 2.01 10.125 1.5 C12.74694393 -0.59755514 14.73842472 -0.21743835 18 0 C18 2.31 18 4.62 18 7 C17.43410156 7.19335938 16.86820312 7.38671875 16.28515625 7.5859375 C15.55167969 7.84632813 14.81820313 8.10671875 14.0625 8.375 C13.33160156 8.63023437 12.60070312 8.88546875 11.84765625 9.1484375 C9.81317884 9.85271413 9.81317884 9.85271413 9 12 C8.73559189 15.44097783 8.55540087 18.87548501 8.39453125 22.32226562 C8.10073855 27.89926145 8.10073855 27.89926145 7 29 C4 29.125 4 29.125 1 29 C0 28 0 28 -0.11352539 25.31616211 C-0.10828857 24.14835205 -0.10305176 22.98054199 -0.09765625 21.77734375 C-0.09443359 20.51728516 -0.09121094 19.25722656 -0.08789062 17.95898438 C-0.07953403 16.61848891 -0.07106907 15.27799412 -0.0625 13.9375 C-0.0574866 12.59310058 -0.05292342 11.2486994 -0.04882812 9.90429688 C-0.03699488 6.60282059 -0.02050971 3.30143197 0 0 Z " fill="#000000" transform="translate(292,245)"/>
<path d="M0 0 C2.64 0 5.28 0 8 0 C10.31 5.61 12.62 11.22 15 17 C17.62762214 14.37237786 18.6772951 11.31793921 20.0625 7.9375 C22.88006757 1.11993243 22.88006757 1.11993243 24 0 C26.33297433 -0.04092937 28.66705225 -0.04241723 31 0 C30.31108629 4.71836536 28.53966845 8.77115464 26.65625 13.109375 C26.16251892 14.26049774 26.16251892 14.26049774 25.65881348 15.43487549 C24.96509842 17.04952873 24.26904638 18.66317969 23.57080078 20.27587891 C22.49863136 22.75316228 21.43429995 25.2337022 20.37109375 27.71484375 C19.69576921 29.2840508 19.02000342 30.85306803 18.34375 32.421875 C18.02394165 33.16661072 17.7041333 33.91134644 17.37463379 34.6786499 C15.11608196 39.88391804 15.11608196 39.88391804 14 41 C11.32941149 41.14115161 8.67567762 41.04247107 6 41 C7.04650359 37.69948867 7.98379209 35.02451114 9.90625 32.1171875 C11.13212885 29.28330361 11.01812961 28.06829064 10.21166992 25.03051758 C8.81581178 21.52093874 7.29108572 18.10710425 5.6875 14.6875 C4.62660232 12.33827867 3.56789015 9.98806873 2.51171875 7.63671875 C1.79181763 6.08537231 1.79181763 6.08537231 1.05737305 4.50268555 C0 2 0 2 0 0 Z " fill="#000000" transform="translate(360,245)"/>
<path d="M0 0 C2.31 0 4.62 0 7 0 C7 0.99 7 1.98 7 3 C7.61875 2.505 8.2375 2.01 8.875 1.5 C13.26732757 -0.60831723 17.20946147 -0.85741987 22 0 C25.34625024 2.52676039 26.67977847 4.03933542 28 8 C28.08143855 9.62719482 28.1075302 11.25751719 28.09765625 12.88671875 C28.09443359 13.82451172 28.09121094 14.76230469 28.08789062 15.72851562 C28.07951172 16.70498047 28.07113281 17.68144531 28.0625 18.6875 C28.05798828 19.67556641 28.05347656 20.66363281 28.04882812 21.68164062 C28.03704303 24.12115474 28.02059011 26.56054689 28 29 C25.66705225 29.04241723 23.33297433 29.04092937 21 29 C19.38219843 27.38219843 19.77727853 25.54364482 19.68359375 23.30859375 C19.64169922 22.36435547 19.59980469 21.42011719 19.55664062 20.44726562 C19.51732422 19.45404297 19.47800781 18.46082031 19.4375 17.4375 C19.39431641 16.44041016 19.35113281 15.44332031 19.30664062 14.41601562 C19.20019702 11.9441585 19.09818072 9.4721969 19 7 C13.67829506 6.70437633 13.67829506 6.70437633 9 9 C8.5099591 11.00723539 8.5099591 11.00723539 8.5234375 13.31640625 C8.47703125 14.58581055 8.47703125 14.58581055 8.4296875 15.88085938 C8.41164063 16.76580078 8.39359375 17.65074219 8.375 18.5625 C8.32419742 20.31391908 8.26971055 22.06523652 8.2109375 23.81640625 C8.19337402 24.59443604 8.17581055 25.37246582 8.15771484 26.17407227 C8 28 8 28 7 29 C4 29.125 4 29.125 1 29 C0 28 0 28 -0.11352539 25.31616211 C-0.10828857 24.14835205 -0.10305176 22.98054199 -0.09765625 21.77734375 C-0.09443359 20.51728516 -0.09121094 19.25722656 -0.08789062 17.95898438 C-0.07953403 16.61848891 -0.07106907 15.27799412 -0.0625 13.9375 C-0.0574866 12.59310058 -0.05292342 11.2486994 -0.04882812 9.90429688 C-0.03699488 6.60282059 -0.02050971 3.30143197 0 0 Z " fill="#000000" transform="translate(396,245)"/>
</svg>
